Coordinates
version=1
nRows=29
nColumns=24
inDegrees=yes

Units are S.I. units (second, meters, Newtons, ...)
Angles are in degrees.

endheader
time	pelvis_tilt	pelvis_list	pelvis_rotation	pelvis_tx	pelvis_ty	pelvis_tz	hip_flexion_r	hip_adduction_r	hip_rotation_r	knee_angle_r	ankle_angle_r	subtalar_angle_r	mtp_angle_r	hip_flexion_l	hip_adduction_l	hip_rotation_l	knee_angle_l	ankle_angle_l	subtalar_angle_l	mtp_angle_l	lumbar_extension	lumbar_bending	lumbar_rotation
      4.42000000	    -10.02963707	      7.98224229	      1.98227171	     -0.91782804	     -0.01896217	      0.57776003	     26.19462882	    -14.40762906	     -4.54915676	    -66.11696010	     -5.84220066	     -0.95260800	     16.21900031	     19.22063954	     12.20591995	    -13.91684694	    -18.46449851	      4.07511422	     11.43792755	     -2.62075238	      8.54831884	     -9.88320449	     -2.64347915
      4.42500000	    -10.04137116	      7.72666033	      2.36363304	     -0.91172761	     -0.01796102	      0.57693664	     26.83780341	    -14.19978035	     -4.95247844	    -65.63951716	     -5.58242411	     -0.56375064	     16.42766534	     18.45489232	     12.20459589	    -13.13123319	    -17.88637818	      4.20652869	     11.29615805	     -2.85453811	      8.50133965	     -9.68827573	     -3.19517320
      4.43000000	    -10.05083463	      7.46587350	      2.73795508	     -0.90562549	     -0.01700843	      0.57613878	     27.45868517	    -13.98302687	     -5.36044113	    -65.08745562	     -5.34880824	     -0.26425606	     16.53924567	     17.68700631	     12.17982196	    -12.35881320	    -17.30392464	      4.32713542	     11.13985873	     -3.08065376	      8.45752524	     -9.48315392	     -3.72326931
      4.43500000	    -10.03851850	      7.23449907	      3.12653775	     -0.89946887	     -0.01608918	      0.57530100	     28.02590496	    -13.82316794	     -5.81454920	    -64.46700224	     -5.12946654	     -0.08519076	     16.56883187	     16.87185365	     12.18853833	    -11.51341922	    -16.68353508	      4.41453392	     10.89354650	     -3.38254083	      8.39964001	     -9.31027742	     -4.21257833
      4.44000000	    -10.04856160	      6.99404604	      3.48495618	     -0.89339673	     -0.01529015	      0.57456059	     28.62512221	    -13.62267873	     -6.20831138	    -63.79896469	     -4.94292962	      0.04328537	     16.51310219	     16.11218224	     12.14658315	    -10.76407570	    -16.10751453	      4.54159677	     10.74517299	     -3.61250488	      8.35561522	     -9.12834931	     -4.73113492
      4.44500000	    -10.03496506	      6.78098499	      3.85265070	     -0.88725839	     -0.01451809	      0.57377953	     29.16456501	    -13.47776249	     -6.65079010	    -63.06205166	     -4.75692718	      0.06610075	     16.34480870	     15.30214800	     12.13354884	     -9.95529433	    -15.49209196	      4.62829429	     10.50513243	     -3.91627071	      8.29869853	     -8.97137823	     -5.18997667
      4.45000000	    -10.07966097	      6.51313031	      4.16879443	     -0.88116709	     -0.01386960	      0.57309889	     29.76454942	    -13.23381278	     -7.02493863	    -62.24871839	     -4.61438861	      0.04398325	     16.15530955	     14.60346416	     12.01434347	     -9.34238420	    -14.94396991	      4.75614122	     10.41917736	     -4.08338907	      8.31212873	     -8.74996705	     -5.62603024
      4.45500000	    -10.01675058	      6.37004574	      4.52922916	     -0.87506590	     -0.01322958	      0.57234964	     30.22588507	    -13.17246394	     -7.45973556	    -61.42449687	     -4.43792940	     -0.05699003	     15.72873630	     13.72272201	     12.05281866	     -8.43651406	    -14.29509698	      4.82869075	     10.06388668	     -4.47573926	      8.18988947	     -8.66772035	     -6.09846437
      4.46000000	    -10.08177340	      6.11149870	      4.83216765	     -0.86900328	     -0.01275761	      0.57170866	     30.81422164	    -12.94291842	     -7.83769728	    -60.49404464	     -4.35066903	     -0.27579169	     15.39531919	     13.06549829	     11.91042104	     -7.87515463	    -13.77069059	      4.96897966	     10.01453687	     -4.62496626	      8.22538214	     -8.45377203	     -6.51938882
      4.46500000	    -10.08861172	      5.89340061	      5.16181347	     -0.86291463	     -0.01231207	      0.57106719	     31.30454072	    -12.78594061	     -8.27757165	    -59.51300930	     -4.26256367	     -0.59378455	     14.94395319	     12.32328875	     11.80864364	     -7.20132030	    -13.21645619	      5.10150994	      9.88666556	     -4.81945440	      8.19531494	     -8.29611374	     -6.94667171
      4.47000000	    -10.00756310	      5.78379511	      5.48042522	     -0.85682874	     -0.01188997	      0.57036053	     31.69002199	    -12.75677394	     -8.68538657	    -58.52886951	     -4.06937110	     -0.74109405	     14.12002610	     11.43196549	     11.83143374	     -6.31896534	    -12.57752567	      5.16779897	      9.47358028	     -5.25919684	      8.05423182	     -8.23233806	     -7.37193547
      4.47500000	    -10.01839228	      5.59000948	      5.74921446	     -0.85074644	     -0.01161116	      0.56976465	     32.16010993	    -12.60240748	     -9.05613823	    -57.45692048	     -3.96511996	     -0.99025480	     13.26993878	     10.69797533	     11.72521250	     -5.64896051	    -12.02213103	      5.31049470	      9.26472759	     -5.58111286	      8.03328412	     -8.07782463	     -7.74683509
      4.48000000	    -10.10131809	      5.39386497	      5.98930656	     -0.84470767	     -0.01149255	      0.56926061	     32.69944249	    -12.43067261	     -9.41405091	    -56.30063093	     -3.95413296	     -1.54491569	     12.79850254	     10.10055940	     11.58383566	     -5.25533620	    -11.54866011	      5.46779994	      9.28803507	     -5.66311033	      8.09312431	     -7.92904759	     -8.07226445
      4.48500000	    -10.00254788	      5.25761371	      6.29543546	     -0.83864207	     -0.01126593	      0.56861470	     32.98036875	    -12.38371791	     -9.88651328	    -55.12113673	     -3.80565224	     -1.85963121	     11.80266428	      9.23695409	     11.52058075	     -4.50242706	    -10.98136962	      5.58156684	      9.01147499	     -5.98304574	      7.93306170	     -7.83189174	     -8.48381358
      4.49000000	    -10.02813729	      5.09791169	      6.53513640	     -0.83258924	     -0.01125098	      0.56809092	     33.40168597	    -12.27255482	    -10.29020817	    -53.87946904	     -3.74147928	     -2.32430064	     10.90461074	      8.56204991	     11.40655647	     -3.97312136	    -10.48900701	      5.73975537	      8.88541858	     -6.20402851	      7.92631893	     -7.71052820	     -8.80020694
      4.49500000	    -10.01686343	      4.94041292	      6.75846555	     -0.82652767	     -0.01126156	      0.56757639	     33.75081950	    -12.15916246	    -10.69689567	    -52.57143088	     -3.66073823	     -2.72715102	      9.94879560	      7.85059269	     11.28088954	     -3.45278132	     -9.99919079	      5.90047319	      8.74848715	     -6.43158010	      7.87916815	     -7.58228246	     -9.11224738
      4.50000000	    -10.01997031	      4.79541924	      6.97079679	     -0.82049077	     -0.01137074	      0.56709866	     34.09622410	    -12.05687147	    -11.10852584	    -51.20888105	     -3.59806168	     -3.17612405	      9.03369452	      7.17527785	     11.15597607	     -2.99109133	     -9.54024840	      6.07573079	      8.65836398	     -6.62281060	      7.84231094	     -7.46801238	     -9.41631398
      4.50500000	    -10.12194943	      4.63078543	      7.12806152	     -0.81445598	     -0.01165686	      0.56669442	     34.54138807	    -11.90488222	    -11.45811002	    -49.76291131	     -3.63408266	     -3.72494493	      8.48947877	      6.64860591	     10.99992691	     -2.70840528	     -9.13479960	      6.27795806	      8.68401654	     -6.67901544	      7.92754353	     -7.32949516	     -9.66442358
      4.51000000	     -9.98977527	      4.51215793	      7.35188501	     -0.80837988	     -0.01178119	      0.56618447	     34.66590434	    -11.85570774	    -11.98395775	    -48.31239432	     -3.45818297	     -3.97292448	      7.22919193	      5.81156086	     10.88167152	     -2.13574402	     -8.66317441	      6.46941837	      8.49215434	     -6.98040692	      7.73601435	     -7.22535368	     -9.98386397
      4.51500000	    -10.09680412	      4.37639197	      7.50651682	     -0.80234986	     -0.01223175	      0.56579866	     35.07035793	    -11.74948271	    -12.39623164	    -46.78453387	     -3.49514658	     -4.47317011	      6.60585974	      5.31148786	     10.74743201	     -1.88313553	     -8.29824549	      6.68713868	      8.51014662	     -7.05811278	      7.81882785	     -7.12201384	    -10.25115978
      4.52000000	    -10.03306245	      4.26336202	      7.71667369	     -0.79632265	     -0.01255280	      0.56539060	     35.22777319	    -11.68737938	    -12.90329651	    -45.21253161	     -3.41364341	     -4.78545527	      5.65672832	      4.60932337	     10.61308393	     -1.44821114	     -7.92442426	      6.91127515	      8.49209254	     -7.24922939	      7.69400928	     -7.03361115	    -10.53715436
      4.52500000	    -10.15393263	      4.11256571	      7.82047794	     -0.79019738	     -0.01317954	      0.56505626	     35.58747470	    -11.54283485	    -13.29974745	    -43.56989299	     -3.35226306	     -4.97570494	      5.15916685	      4.14954832	     10.45106061	     -1.22949917	     -7.60758094	      7.17748552	      8.49621173	     -7.30606018	      7.81186604	     -6.89855532	    -10.66621451
      4.53000000	    -10.00109077	      4.01109430	      7.98771872	     -0.78405492	     -0.01356583	      0.56467524	     35.60263942	    -11.48148133	    -13.89281361	    -41.96415284	     -3.12692172	     -4.89403079	      3.72080978	      3.33767787	     10.31186554	     -0.73674738	     -7.22662262	      7.43303345	      8.31433241	     -7.72109482	      7.60332241	     -6.79704367	    -10.95661485
      4.53500000	    -10.08602459	      3.90886280	      8.15752874	     -0.77799092	     -0.01429533	      0.56438413	     35.87967109	    -11.41373915	    -14.40699591	    -40.28609611	     -3.09590340	     -5.09870742	      3.12279103	      2.87177300	     10.18553087	     -0.46996513	     -6.98661327	      7.72175444	      8.37216627	     -7.80158200	      7.65057003	     -6.73541667	    -11.19442947
      4.54000000	    -10.08400190	      3.78093692	      8.30350967	     -0.77182924	     -0.01498711	      0.56410736	     36.02286875	    -11.30378068	    -14.96055604	    -38.56442184	     -2.99561018	     -5.03146590	      2.48562652	      2.30728114	     10.01497287	     -0.19341633	     -6.74066485	      8.03175716	      8.39302572	     -7.92949227	      7.61506702	     -6.62832660	    -11.41258841
      4.54500000	    -10.10110909	      3.66494156	      8.43131053	     -0.76562507	     -0.01578269	      0.56381716	     36.17691836	    -11.20124202	    -15.53558249	    -36.83584741	     -2.88987445	     -4.85801754	      1.90903377	      1.78331368	      9.86188370	      0.03185627	     -6.53792051	      8.34986203	      8.38800376	     -8.05424116	      7.61095306	     -6.52171777	    -11.63182839
      4.55000000	    -10.09372487	      3.55927932	      8.57512243	     -0.75941412	     -0.01660708	      0.56359105	     36.28378588	    -11.09978696	    -16.10648516	    -35.10108086	     -2.76432157	     -4.52658195	      1.31641993	      1.24072828	      9.70285187	      0.31398004	     -6.35755992	      8.68829884	      8.42722821	     -8.20280529	      7.56851703	     -6.44002764	    -11.82800501
      4.55500000	    -10.10513195	      3.45708096	      8.70789193	     -0.75319454	     -0.01753472	      0.56340667	     36.40103228	    -10.98177879	    -16.63901680	    -33.36247930	     -2.62260699	     -4.08111771	      0.79248643	      0.74718029	      9.54626387	      0.56398089	     -6.23327338	      9.06364423	      8.46894810	     -8.34137405	      7.54496971	     -6.36209153	    -12.01661313
      4.56000000	    -10.08413743	      3.36588553	      8.78724887	     -0.74689854	     -0.01848618	      0.56328072	     36.48786549	    -10.83457322	    -17.13862409	    -31.66114804	     -2.46226767	     -3.44813302	      0.10313286	      0.21784020	      9.39351498	      0.76254947	     -6.11727311	      9.44731257	      8.48821343	     -8.62065502	      7.49985666	     -6.27993404	    -12.15533045
